<?xml version="1.0" encoding="iso-8859-1"?>
<!-- Uploaded to: SVG Repo, www.svgrepo.com, Generator: SVG Repo Mixer Tools -->
<svg fill="#000000" height="800px" width="800px" version="1.1" id="Layer_1" xmlns="http://www.w3.org/2000/svg" xmlns:xlink="http://www.w3.org/1999/xlink" 
	 viewBox="0 0 163.305 163.305" xml:space="preserve">
<g>
	<g>
		<g>
			<path d="M22.585,36.483C11.706,36.483,0,39.744,0,46.907v104.414c0,0.066,0.034,0.12,0.037,0.185
				c0.397,6.905,11.859,10.062,22.548,10.062c10.879,0,22.585-3.261,22.585-10.424V47.199c0-0.035-0.019-0.064-0.02-0.099
				c0.002-0.066,0.02-0.126,0.02-0.193C45.169,39.744,33.463,36.483,22.585,36.483z M22.585,43.432
				c8.963,0,14.169,2.248,15.411,3.474c-1.241,1.227-6.446,3.475-15.411,3.475c-8.963,0-14.169-2.248-15.411-3.474
				C8.415,45.68,13.62,43.432,22.585,43.432z M6.895,54.663c4.324,1.802,10.11,2.667,15.689,2.667c5.558,0,11.322-0.857,15.64-2.645
				l0.006,9.341c-0.716,1.139-6.042,3.728-15.645,3.728c-9.497,0-14.835-2.538-15.643-3.695c-0.003-0.057-0.035-0.104-0.042-0.161
				L6.895,54.663z M6.904,72.041c4.323,1.799,10.105,2.663,15.68,2.663c5.562,0,11.33-0.859,15.649-2.649l0.006,9.334
				c-0.693,1.134-6.025,3.738-15.655,3.738c-9.497,0-14.835-2.538-15.643-3.695c-0.003-0.044-0.027-0.08-0.032-0.123L6.904,72.041z
				 M6.915,89.419c4.322,1.796,10.099,2.658,15.67,2.658c5.566,0,11.339-0.86,15.659-2.653l0.005,9.327
				c-0.669,1.129-6.008,3.749-15.664,3.749c-9.497,0-14.835-2.538-15.643-3.695c-0.002-0.031-0.019-0.056-0.022-0.086L6.915,89.419z
				 M6.924,106.796c4.321,1.794,10.094,2.654,15.661,2.654c5.57,0,11.347-0.861,15.669-2.657l0.005,9.321
				c-0.645,1.124-5.992,3.759-15.674,3.759c-9.497,0-14.835-2.538-15.643-3.695c-0.001-0.017-0.011-0.032-0.013-0.049L6.924,106.796
				z M6.938,133.539l-0.005-9.366c4.32,1.791,10.089,2.649,15.651,2.649c5.575,0,11.356-0.863,15.678-2.662l0.006,9.316
				c-0.621,1.118-5.975,3.77-15.684,3.77c-9.497,0-14.835-2.538-15.643-3.695C6.941,133.547,6.938,133.543,6.938,133.539z
				 M22.585,154.619c-9.482,0-14.815-2.529-15.636-3.689l-0.005-9.38c4.319,1.788,10.083,2.645,15.641,2.645
				c5.579,0,11.365-0.864,15.688-2.666l0.005,9.31C37.681,151.952,32.32,154.619,22.585,154.619z"/>
			<path d="M163.305,12.161c0-7.163-11.706-10.424-22.585-10.424c-10.879,0-22.585,3.261-22.585,10.424v138.878
				c0,0.019,0.01,0.034,0.011,0.052c0,0.019-0.011,0.034-0.011,0.053c0,7.163,11.706,10.424,22.585,10.424
				c10.879,0,22.585-3.261,22.585-10.424V13.155c0-0.12-0.056-0.221-0.068-0.337C163.26,12.599,163.305,12.388,163.305,12.161z
				 M140.72,8.686c8.963,0,14.169,2.248,15.411,3.474c-1.241,1.227-6.446,3.475-15.411,3.475c-8.963,0-14.169-2.248-15.411-3.474
				C126.551,10.934,131.755,8.686,140.72,8.686z M125.029,19.918c4.324,1.803,10.11,2.667,15.69,2.667
				c5.557,0,11.32-0.857,15.638-2.644l0.006,9.342c-0.723,1.14-6.046,3.725-15.643,3.725c-9.497,0-14.835-2.538-15.643-3.695
				c-0.004-0.06-0.037-0.11-0.044-0.169L125.029,19.918z M125.036,37.295c4.323,1.801,10.107,2.664,15.683,2.664
				c5.56,0,11.327-0.858,15.646-2.647l0.005,9.337c-0.705,1.136-6.034,3.733-15.65,3.733c-9.497,0-14.835-2.538-15.643-3.695
				c-0.003-0.05-0.031-0.092-0.037-0.141L125.036,37.295z M125.043,54.67c4.322,1.798,10.103,2.661,15.676,2.661
				c5.563,0,11.333-0.859,15.653-2.65l0.005,9.333c-0.687,1.133-6.021,3.741-15.657,3.741c-9.497,0-14.835-2.538-15.643-3.695
				c-0.002-0.041-0.025-0.073-0.03-0.114L125.043,54.67z M125.051,72.046c4.322,1.796,10.099,2.658,15.669,2.658
				c5.567,0,11.34-0.86,15.66-2.654l0.004,9.328c-0.669,1.129-6.009,3.749-15.664,3.749c-9.497,0-14.835-2.538-15.643-3.695
				c-0.002-0.031-0.019-0.055-0.022-0.086L125.051,72.046z M125.059,89.422c4.321,1.794,10.094,2.654,15.661,2.654
				c5.57,0,11.346-0.861,15.668-2.657l0.004,9.325c-0.651,1.125-5.996,3.756-15.671,3.756c-9.497,0-14.835-2.538-15.643-3.695
				c-0.001-0.02-0.013-0.037-0.015-0.058L125.059,89.422z M125.065,106.798c4.32,1.792,10.091,2.651,15.654,2.651
				c5.573,0,11.352-0.862,15.675-2.66l0.005,9.32c-0.633,1.121-5.984,3.764-15.679,3.764c-9.497,0-14.835-2.538-15.643-3.695
				c-0.001-0.011-0.007-0.019-0.008-0.03L125.065,106.798z M125.073,124.175c4.319,1.79,10.087,2.648,15.647,2.648
				c5.576,0,11.359-0.863,15.682-2.663l0.004,9.314c-0.615,1.117-5.971,3.772-15.686,3.772c-9.497,0-14.835-2.538-15.643-3.695
				c0-0.001,0-0.001,0-0.001L125.073,124.175z M140.72,154.619c-9.482,0-14.815-2.529-15.636-3.689l-0.004-9.38
				c4.319,1.788,10.083,2.645,15.64,2.645c5.579,0,11.366-0.864,15.689-2.667l0.004,9.31
				C155.816,151.952,150.455,154.619,140.72,154.619z"/>
			<path d="M92.796,71.405c-1.357-1.357-3.556-1.357-4.913,0c-1.357,1.357-1.357,3.556,0,4.913l8.809,8.808H59.068v6.949h37.623
				l-8.809,8.809c-1.357,1.357-1.357,3.556,0,4.913c0.679,0.679,1.568,1.018,2.457,1.018c0.889,0,1.778-0.339,2.457-1.018
				l14.74-14.74c1.357-1.357,1.357-3.556,0-4.913L92.796,71.405z"/>
		</g>
	</g>
</g>
</svg>