<?xml version="1.0" encoding="iso-8859-1"?>
<!-- Uploaded to: SVG Repo, www.svgrepo.com, Generator: SVG Repo Mixer Tools -->
<svg fill="#000000" height="800px" width="800px" version="1.1" id="Layer_1" xmlns="http://www.w3.org/2000/svg" xmlns:xlink="http://www.w3.org/1999/xlink" 
	 viewBox="0 0 180.68 180.68" xml:space="preserve">
<g>
	<g>
		<g>
			<path d="M177.203,48.645H159.83h-27.797h-3.651c-1.763-19.45-18.142-34.746-38.044-34.746s-36.28,15.296-38.043,34.746h-3.651
				H20.847H3.475C1.554,48.645,0,50.199,0,52.12v111.186c0,1.92,1.554,3.475,3.475,3.475h17.373h27.797h83.39h27.797h17.373
				c1.92,0,3.475-1.554,3.475-3.475V52.12C180.678,50.199,179.124,48.645,177.203,48.645z M17.373,159.831H6.949V55.594h10.424
				V159.831z M45.169,159.831H24.322V55.594h20.847V159.831z M90.339,20.848c16.069,0,29.331,12.184,31.066,27.797H59.273
				C61.008,33.032,74.27,20.848,90.339,20.848z M128.559,159.831h-76.44V55.594h76.44V159.831z M156.355,159.831h-20.847V55.594
				h20.847V159.831z M173.729,159.832h-10.424V55.594h10.424V159.832z"/>
			<path d="M62.542,114.662H76.44h13.898h13.898h13.898c1.92,0,3.475-1.554,3.475-3.475V97.289c0-1.92-1.554-3.475-3.475-3.475
				h-13.898H90.339H76.441H62.542c-1.92,0-3.475,1.554-3.475,3.475v13.898C59.068,113.108,60.622,114.662,62.542,114.662z
				 M107.712,100.764h6.949v6.949h-6.949V100.764z M93.814,100.764h6.949v6.949h-6.949V100.764z M79.915,100.764h6.949v6.949h-6.949
				V100.764z M66.017,100.764h6.949v6.949h-6.949V100.764z"/>
		</g>
	</g>
</g>
</svg>