<?xml version="1.0" encoding="iso-8859-1"?>
<!-- Uploaded to: SVG Repo, www.svgrepo.com, Generator: SVG Repo Mixer Tools -->
<svg fill="#000000" height="800px" width="800px" version="1.1" id="Layer_1" xmlns="http://www.w3.org/2000/svg" xmlns:xlink="http://www.w3.org/1999/xlink" 
	 viewBox="0 0 208.474 208.474" xml:space="preserve">
<g>
	<g>
		<g>
			<path d="M198.064,17.372H10.41C4.669,17.372,0,22.049,0,27.796s4.669,10.423,10.41,10.423h6.963v86.868
				c0,9.579,7.808,17.369,17.407,17.369h59.953l-17.43,41.695h-9.626c-1.92,0-3.475,1.554-3.475,3.475s1.554,3.475,3.475,3.475
				h11.94c1.401,0,2.664-0.842,3.207-2.134l19.443-46.51h2.629l19.443,46.51c0.543,1.293,1.805,2.134,3.206,2.134h11.94
				c1.92,0,3.475-1.554,3.475-3.475s-1.554-3.475-3.475-3.475h-9.626l-17.43-41.695h64.74c9.599,0,17.407-7.791,17.407-17.369
				V38.219h3.488c5.741,0,10.41-4.676,10.41-10.424C208.474,22.047,203.805,17.372,198.064,17.372z M187.627,125.088
				c0,5.745-4.693,10.42-10.458,10.42h-69.945c-0.002,0-0.004,0-0.006,0H99.95c-0.006,0-0.013,0-0.019,0H34.78
				c-5.765,0-10.458-4.676-10.458-10.42V38.219h163.305V125.088z M198.064,31.27h-6.963H20.847H10.41
				c-1.941,0-3.461-1.527-3.461-3.475c0-1.916,1.554-3.475,3.461-3.475h187.654c1.941,0,3.461,1.527,3.461,3.475
				C201.525,29.711,199.971,31.27,198.064,31.27z"/>
			<path d="M36.432,87.913l22.629,8.554c0.397,0.149,0.811,0.224,1.228,0.224c0.414,0,0.828-0.073,1.218-0.221l31.187-11.69
				c0.587-0.219,1.099-0.592,1.49-1.079l21.387-26.626l24.173,21.704c0.611,0.55,1.401,0.865,2.222,0.887l30.657,0.855
				c1.941,0.088,3.519-1.457,3.573-3.376c0.051-1.919-1.459-3.517-3.376-3.569l-29.384-0.819l-25.954-23.304
				c-0.713-0.638-1.649-0.95-2.602-0.877c-0.953,0.076-1.829,0.543-2.426,1.288L89.365,78.607L60.296,89.504l-21.407-8.093
				c-1.778-0.669-3.797,0.225-4.479,2.022C33.731,85.228,34.637,87.233,36.432,87.913z"/>
			<path d="M147.049,96.843l-14.624-13.927c-0.736-0.702-1.734-1.045-2.769-0.938c-1.015,0.108-1.931,0.66-2.504,1.505
				l-16.722,24.686l-8.602-6.254c-0.594-0.431-1.31-0.665-2.043-0.665c-0.01,0-0.021,0-0.027,0c0,0-34.766,0.285-36.863,0.285
				c-1.089,0-3.122,0-24.234,13.678c-1.608,1.042-2.07,3.193-1.025,4.805c0.665,1.025,1.778,1.585,2.918,1.585
				c0.648,0,1.303-0.18,1.887-0.56c8.384-5.433,18.513-11.625,20.878-12.558c3.99-0.021,29.599-0.227,35.35-0.275l10.58,7.692
				c0.76,0.553,1.71,0.774,2.643,0.614c0.926-0.163,1.747-0.696,2.277-1.476l16.436-24.263l13.196,12.57
				c0.947,0.903,2.324,1.198,3.556,0.757l30.616-10.834c1.809-0.641,2.755-2.626,2.114-4.435c-0.638-1.81-2.616-2.758-4.435-2.117
				L147.049,96.843z"/>
		</g>
	</g>
</g>
</svg>